#!OML:ASF G:\JayActor3\Patient Classification 1\Patient 1\Session 6\male.ASF
:FULLY-SPECIFIED
:DEGREES
3127
root -3.93395 16.2492 1.58601 542.601 -80.6586 -545.531
lowerback 0.15649 -0.2351 3.03486
upperback -0.30472 -0.305596 0.340996
thorax -0.413924 -0.163576 -1.3497
lowerneck 10.4936 6.02439 5.458
upperneck 0.525392 8.37415 -7.57339
head -1.07294 4.33001 -3.75608
rclavicle 1.96797e-014 -4.37326e-015
rhumerus -26.0242 55.2165 -101.953
rradius 94.5211
rwrist 21.6826
rhand -50.9647 4.79981
rfingers 7.12502
rthumb -23.5148 -23.7829
lclavicle 1.96797e-014 -4.37326e-015
lhumerus 18.2506 -56.9549 59.408
lradius 65.4859
lwrist -6.65087
lhand -27.9325 10.5088
lfingers 7.12502
lthumb -1.32072 40.4844
rfemur -20.1736 7.22434 15.4123
rtibia 48.6971
rfoot -22.9285 -8.24607
rtoes -10.0285
lfemur -0.448135 16.1091 -21.5774
ltibia 22.3997
lfoot -18.6717 -6.39036
ltoes 9.14147
3128
root -3.92659 16.2458 1.59099 542.495 -80.5168 -545.42
lowerback 0.124338 -0.217496 3.01972
upperback -0.3199 -0.283021 0.322787
thorax -0.410435 -0.152339 -1.3601
lowerneck 10.4982 6.01933 5.45918
upperneck 0.496488 8.36641 -7.58325
head -1.0834 4.32664 -3.76077
rclavicle 2.55935e-015 2.78299e-015
rhumerus -26.0632 55.2676 -101.991
rradius 94.5042
rwrist 21.6715
rhand -50.9488 4.79037
rfingers 7.12502
rthumb -23.4995 -23.7943
lclavicle 2.55935e-015 2.78299e-015
lhumerus 18.1769 -56.966 59.4565
lradius 65.4604
lwrist -6.60246
lhand -27.9306 10.5402
lfingers 7.12502
lthumb -1.31889 40.5159
rfemur -20.064 7.14848 15.6496
rtibia 48.7708
rfoot -22.9152 -8.24936
rtoes -9.71756
lfemur -0.574727 16.1763 -21.5923
ltibia 22.5878
lfoot -18.7294 -6.35194
ltoes 9.1685
3129
root -3.92037 16.2425 1.59501 542.335 -80.3854 -545.244
lowerback 0.0735256 -0.202643 3.01645
upperback -0.334807 -0.264809 0.308174
thorax -0.396442 -0.143191 -1.3735
lowerneck 10.498 6.0146 5.46059
upperneck 0.468631 8.35906 -7.59317
head -1.09263 4.32341 -3.76526
rclavicle 3.13086e-015 -1.94809e-014
rhumerus -26.0841 55.3219 -102.013
rradius 94.4898
rwrist 21.6668
rhand -50.927 4.77595
rfingers 7.12502
rthumb -23.4785 -23.8114
lclavicle 3.13086e-015 -1.94809e-014
lhumerus 18.1178 -56.9688 59.4892
lradius 65.4397
lwrist -6.55296
lhand -27.9202 10.574
lfingers 7.12502
lthumb -1.30889 40.5497
rfemur -19.9423 7.10295 15.8826
rtibia 48.771
rfoot -22.8878 -8.28398
rtoes -9.31606
lfemur -0.70815 16.2532 -21.5887
ltibia 22.7762
lfoot -18.7867 -6.33361
ltoes 9.1928
3130
root -3.91505 16.2395 1.59804 542.164 -80.2707 -545.048
lowerback 0.0113592 -0.192708 3.0185
upperback -0.354337 -0.253499 0.294615
thorax -0.381153 -0.137556 -1.38878
lowerneck 10.5051 6.01078 5.46431
upperneck 0.437268 8.35326 -7.60413
head -1.10406 4.3211 -3.77107
rclavicle -2.30342e-014 5.96354e-015
rhumerus -26.1024 55.3741 -102.036
rradius 94.4771
rwrist 21.6634
rhand -50.8953 4.72709
rfingers 7.12502
rthumb -23.4482 -23.8641
lclavicle -2.30342e-014 5.96354e-015
lhumerus 18.0604 -56.9679 59.5152
lradius 65.4269
lwrist -6.50451
lhand -27.9034 10.6108
lfingers 7.12502
lthumb -1.29265 40.5867
rfemur -19.8098 7.08184 16.1037
rtibia 48.6992
rfoot -22.8608 -8.37442
rtoes -8.84702
lfemur -0.846129 16.3331 -21.5753
ltibia 22.9584
lfoot -18.8415 -6.33
ltoes 9.19699
3131
root -3.91067 16.237 1.6 541.985 -80.174 -544.836
lowerback -0.0537557 -0.18741 3.02467
upperback -0.378943 -0.248405 0.281925
thorax -0.369712 -0.135165 -1.40545
lowerneck 10.5174 6.005 5.47212
upperneck 0.40437 8.3454 -7.61666
head -1.11686 4.31789 -3.77846
rclavicle -5.889e-015 7.55382e-015
rhumerus -26.1241 55.4207 -102.063
rradius 94.4646
rwrist 21.6501
rhand -50.8604 4.66553
rfingers 7.12502
rthumb -23.4147 -23.93
lclavicle -5.889e-015 7.55382e-015
lhumerus 18.0031 -56.9668 59.538
lradius 65.4215
lwrist -6.45784
lhand -27.8855 10.6482
lfingers 7.12502
lthumb -1.27528 40.6241
rfemur -19.6647 7.09509 16.3101
rtibia 48.5581
rfoot -22.8622 -8.53066
rtoes -8.27403
lfemur -0.978457 16.4114 -21.5527
ltibia 23.1246
lfoot -18.8903 -6.33687
ltoes 9.18489
3132
root -3.90725 16.235 1.60089 541.843 -80.0982 -544.662
lowerback -0.114942 -0.187651 3.02524
upperback -0.408101 -0.250479 0.268001
thorax -0.365453 -0.136496 -1.42018
lowerneck 10.5371 6.00008 5.4772
upperneck 0.365763 8.33857 -7.62271
head -1.13314 4.31521 -3.78371
rclavicle 9.61621e-015 1.35174e-014
rhumerus -26.1523 55.4591 -102.1
rradius 94.4527
rwrist 21.6227
rhand -50.8337 4.63261
rfingers 7.12502
rthumb -23.3891 -23.9661
lclavicle 9.61621e-015 1.35174e-014
lhumerus 17.9421 -56.9641 59.5638
lradius 65.4199
lwrist -6.41676
lhand -27.8717 10.6694
lfingers 7.12502
lthumb -1.26198 40.6454
rfemur -19.5039 7.1447 16.4919
rtibia 48.3519
rfoot -22.9001 -8.78155
rtoes -7.6649
lfemur -1.09513 16.4837 -21.5301
ltibia 23.2663
lfoot -18.9285 -6.35239
ltoes 9.16925
3133
root -3.90469 16.2335 1.60069 541.774 -80.0417 -544.565
lowerback -0.167783 -0.192272 3.01356
upperback -0.441348 -0.258 0.250246
thorax -0.370281 -0.140678 -1.43194
lowerneck 10.5804 5.9958 5.47239
upperneck 0.301407 8.33165 -7.61599
head -1.16305 4.31277 -3.78485
rclavicle -8.10048e-015 1.51076e-014
rhumerus -26.1904 55.4851 -102.149
rradius 94.443
rwrist 21.5836
rhand -50.8144 4.60543
rfingers 7.12502
rthumb -23.3706 -23.9957
lclavicle -8.10048e-015 1.51076e-014
lhumerus 17.8806 -56.9625 59.59
lradius 65.4228
lwrist -6.37601
lhand -27.8665 10.6855
lfingers 7.12502
lthumb -1.25694 40.6616
rfemur -19.3316 7.23623 16.6402
rtibia 48.0863
rfoot -22.973 -9.12648
rtoes -7.02386
lfemur -1.1911 16.5417 -21.5168
ltibia 23.3779
lfoot -18.957 -6.36515
ltoes 9.14067
3134
root -3.90285 16.2325 1.59944 541.747 -80.0023 -544.513
lowerback -0.210193 -0.200236 2.99416
upperback -0.47746 -0.269536 0.230406
thorax -0.384056 -0.146998 -1.44146
lowerneck 10.6359 5.98596 5.46177
upperneck 0.21445 8.31644 -7.60487
head -1.20361 4.30649 -3.78465
rclavicle 1.75924e-014 7.95139e-015
rhumerus -26.2331 55.4968 -102.205
rradius 94.4385
rwrist 21.5358
rhand -50.7992 4.59566
rfingers 7.12502
rthumb -23.356 -24.0073
lclavicle 1.75924e-014 7.95139e-015
lhumerus 17.8201 -56.9576 59.6186
lradius 65.4276
lwrist -6.34113
lhand -27.8675 10.6887
lfingers 7.12502
lthumb -1.25795 40.6647
rfemur -19.1533 7.37277 16.7612
rtibia 47.7694
rfoot -23.0762 -9.52483
rtoes -6.32126
lfemur -1.26629 16.578 -21.5092
ltibia 23.4582
lfoot -18.9775 -6.36329
ltoes 9.0941
3135
root -3.90167 16.232 1.59719 541.742 -79.9781 -544.488
lowerback -0.242119 -0.209311 2.97108
upperback -0.512702 -0.28218 0.208328
thorax -0.402862 -0.153914 -1.45117
lowerneck 10.6932 5.9641 5.44867
upperneck 0.103742 8.28428 -7.5964
head -1.25367 4.29207 -3.78547
rclavicle -3.76945e-014 -8.74653e-015
rhumerus -26.2733 55.4887 -102.261
rradius 94.4413
rwrist 21.4872
rhand -50.7821 4.57067
rfingers 7.12502
rthumb -23.3396 -24.0344
lclavicle -3.76945e-014 -8.74653e-015
lhumerus 17.773 -56.9501 59.6404
lradius 65.4341
lwrist -6.31092
lhand -27.8726 10.6775
lfingers 7.12502
lthumb -1.26282 40.6535
rfemur -18.9715 7.54658 16.8593
rtibia 47.4137
rfoot -23.1903 -9.92505
rtoes -5.58141
lfemur -1.32033 16.5846 -21.5057
ltibia 23.5115
lfoot -18.9934 -6.33916
ltoes 9.03878
3136
root -3.90095 16.2322 1.59412 541.737 -79.9683 -544.467
lowerback -0.265873 -0.219645 2.94877
upperback -0.545132 -0.29626 0.185842
thorax -0.423441 -0.161542 -1.4617
lowerneck 10.7638 5.93062 5.42586
upperneck -0.0463083 8.23467 -7.58863
head -1.32083 4.26952 -3.78643
rclavicle -1.57785e-014 0
rhumerus -26.307 55.4633 -102.312
rradius 94.453
rwrist 21.4434
rhand -50.7716 4.49044
rfingers 7.12502
rthumb -23.3295 -24.1159
lclavicle -1.57785e-014 0
lhumerus 17.7364 -56.9326 59.6612
lradius 65.4401
lwrist -6.29211
lhand -27.8793 10.6578
lfingers 7.12502
lthumb -1.26936 40.6338
rfemur -18.7924 7.74013 16.9414
rtibia 47.038
rfoot -23.2985 -10.2813
rtoes -4.81226
lfemur -1.35689 16.5552 -21.5039
ltibia 23.5438
lfoot -19.0088 -6.28337
ltoes 8.96456
3137
root -3.90042 16.233 1.59039 541.666 -79.9681 -544.382
lowerback -0.285397 -0.229664 2.93988
upperback -0.572115 -0.309888 0.16669
thorax -0.440849 -0.168897 -1.47634
lowerneck 10.8439 5.88238 5.39676
upperneck -0.241487 8.16321 -7.59105
head -1.40624 4.23687 -3.79137
rclavicle 1.23246e-014 2.38542e-015
rhumerus -26.3234 55.4203 -102.348
rradius 94.4727
rwrist 21.4092
rhand -50.7664 4.4008
rfingers 7.12502
rthumb -23.3245 -24.2062
lclavicle 1.23246e-014 2.38542e-015
lhumerus 17.7145 -56.9013 59.678
lradius 65.4463
lwrist -6.28701
lhand -27.8898 10.6368
lfingers 7.12502
lthumb -1.27944 40.6127
rfemur -18.6219 7.93888 17.0228
rtibia 46.6638
rfoot -23.3909 -10.5564
rtoes -4.05043
lfemur -1.38239 16.4885 -21.493
ltibia 23.5608
lfoot -19.0233 -6.19297
ltoes 8.89739
3138
root -3.8999 16.2342 1.58627 541.572 -79.9773 -544.278
lowerback -0.299941 -0.240958 2.93823
upperback -0.59275 -0.325146 0.149449
thorax -0.454661 -0.176976 -1.49307
lowerneck 10.9507 5.82244 5.35243
upperneck -0.498515 8.07286 -7.59771
head -1.51896 4.19585 -3.79813
rclavicle -2.90723e-015 -1.59028e-015
rhumerus -26.3238 55.3659 -102.372
rradius 94.5008
rwrist 21.3838
rhand -50.7663 4.27803
rfingers 7.12502
rthumb -23.3245 -24.3289
lclavicle -2.90723e-015 -1.59028e-015
lhumerus 17.6929 -56.8502 59.7036
lradius 65.4535
lwrist -6.29544
lhand -27.9013 10.6155
lfingers 7.12502
lthumb -1.29054 40.5914
rfemur -18.4565 8.11744 17.0982
rtibia 46.3139
rfoot -23.464 -10.7525
rtoes -3.40023
lfemur -1.39504 16.3824 -21.4831
ltibia 23.5649
lfoot -19.0383 -6.06204
ltoes 8.81003
3139
root -3.89921 16.236 1.58203 541.415 -79.9929 -544.116
lowerback -0.310216 -0.252646 2.95199
upperback -0.605151 -0.340924 0.136564
thorax -0.462533 -0.185206 -1.51397
lowerneck 11.0891 5.75019 5.29538
upperneck -0.828626 7.96245 -7.61446
head -1.66365 4.14623 -3.80992
rclavicle -2.42517e-014 9.93923e-015
rhumerus -26.3036 55.3053 -102.377
rradius 94.5353
rwrist 21.3646
rhand -50.7793 4.13806
rfingers 7.12502
rthumb -23.3369 -24.4673
lclavicle -2.42517e-014 9.93923e-015
lhumerus 17.6698 -56.7761 59.7413
lradius 65.4651
lwrist -6.30704
lhand -27.916 10.601
lfingers 7.12502
lthumb -1.30474 40.5767
rfemur -18.2976 8.26614 17.1766
rtibia 46.0027
rfoot -23.5249 -10.881
rtoes -2.90109
lfemur -1.39763 16.2347 -21.4684
ltibia 23.5605
lfoot -19.0545 -5.88642
ltoes 8.70091
3140
root -3.89849 16.2382 1.57789 541.253 -80.0152 -543.96
lowerback -0.313646 -0.266663 2.9703
upperback -0.606578 -0.359713 0.126006
thorax -0.463174 -0.19472 -1.53504
lowerneck 11.2564 5.67106 5.21865
upperneck -1.23104 7.83829 -7.63268
head -1.83998 4.09092 -3.82251
rclavicle 2.59414e-014 -3.97569e-015
rhumerus -26.2605 55.2473 -102.364
rradius 94.5756
rwrist 21.3466
rhand -50.8071 4.00382
rfingers 7.12502
rthumb -23.3635 -24.5982
lclavicle 2.59414e-014 -3.97569e-015
lhumerus 17.6346 -56.6737 59.8008
lradius 65.4837
lwrist -6.31548
lhand -27.9348 10.5892
lfingers 7.12502
lthumb -1.32297 40.5649
rfemur -18.1357 8.37897 17.2469
rtibia 45.7357
rfoot -23.5804 -10.9651
rtoes -2.55979
lfemur -1.38136 16.0454 -21.4605
ltibia 23.5455
lfoot -19.0734 -5.66436
ltoes 8.56031
3141
root -3.89735 16.2406 1.57391 541.058 -80.0409 -543.776
lowerback -0.30714 -0.282523 2.99717
upperback -0.600165 -0.380722 0.119825
thorax -0.461509 -0.205246 -1.55638
lowerneck 11.4482 5.58595 5.12639
upperneck -1.70198 7.70163 -7.65479
head -2.04597 4.03055 -3.83727
rclavicle -6.23687e-015 -9.14409e-015
rhumerus -26.1984 55.1954 -102.333
rradius 94.6237
rwrist 21.3291
rhand -50.8381 3.85878
rfingers 7.12502
rthumb -23.3933 -24.7394
lclavicle -6.23687e-015 -9.14409e-015
lhumerus 17.5785 -56.5391 59.8897
lradius 65.511
lwrist -6.31482
lhand -27.9561 10.5758
lfingers 7.12502
lthumb -1.3435 40.5513
rfemur -17.9765 8.46017 17.3167
rtibia 45.5051
rfoot -23.6179 -11.0316
rtoes -2.36022
lfemur -1.35446 15.8087 -21.4564
ltibia 23.5223
lfoot -19.0937 -5.38887
ltoes 8.39054
